<svg width="49" height="36" viewBox="0 0 49 36" fill="none" xmlns="http://www.w3.org/2000/svg">
<path d="M2.79213 0.964474C2.3957 1.0609 1.7957 1.35019 1.47427 1.59662C1.23856 1.77876 1.2707 1.8109 12.7028 11.6145L24.1671 21.4395L35.6314 11.6145C47.0742 1.80019 47.0957 1.77876 46.8599 1.59662C46.7207 1.48947 46.3992 1.29662 46.1314 1.16805L45.6492 0.921618L24.3814 0.900188C12.6814 0.900188 2.97427 0.921618 2.79213 0.964474Z" fill="#A12020"/>
<path d="M45.9493 5.77533C44.76 6.81462 41.0636 10.0289 37.7314 12.9218C34.3993 15.8039 31.6779 18.2146 31.6779 18.2789C31.6886 18.3325 32.01 18.6539 32.3957 18.9753C32.7921 19.2967 36.4993 22.4467 40.6457 25.961L48.1671 32.3682V18.1182C48.1671 10.2753 48.1564 3.86819 48.1457 3.87891C48.1243 3.87891 47.1386 4.73605 45.9493 5.77533Z" fill="#A12020"/>
<path d="M0.167114 18.161V32.3682L4.48497 28.6932C6.85282 26.6789 9.87425 24.0967 11.2028 22.9717C16.0135 18.8896 16.6028 18.386 16.6242 18.2789C16.6457 18.2146 13.7314 15.6432 10.1635 12.5468C6.59568 9.45033 2.9314 6.26819 2.02068 5.47533C1.10997 4.68248 0.317114 4.00748 0.263543 3.99677C0.209971 3.97534 0.167114 9.81462 0.167114 18.161Z" fill="#A12020"/>
<path d="M9.68137 26.9787L1.23853 34.2215L1.5921 34.4787C1.77424 34.6287 2.10638 34.8215 2.30995 34.918C2.65281 35.0894 4.27067 35.1001 24.1671 35.1001H45.6492L46.1956 34.8108C46.9456 34.4144 47.0849 34.2322 46.8171 33.9858C45.7242 32.968 30.1456 19.7144 30.0706 19.7465C30.0171 19.768 28.6671 20.9251 27.0706 22.318L24.1671 24.8573L21.2635 22.318C19.6671 20.9251 18.3064 19.768 18.2421 19.7573C18.1671 19.7465 14.3207 22.993 9.68137 26.9787Z" fill="#A12020"/>
</svg>
