<svg width="49" height="48" viewBox="0 0 49 48" fill="none" xmlns="http://www.w3.org/2000/svg">
<path d="M34.9057 0H14.7837C6.04336 0 0.832764 5.208 0.832764 13.944V34.032C0.832764 42.792 6.04336 48 14.7837 48H34.8817C43.6221 48 48.8327 42.792 48.8327 34.056V13.944C48.8567 5.208 43.6461 0 34.9057 0ZM24.8447 33.312C19.7062 33.312 15.5281 29.136 15.5281 24C15.5281 18.864 19.7062 14.688 24.8447 14.688C29.9833 14.688 34.1614 18.864 34.1614 24C34.1614 29.136 29.9833 33.312 24.8447 33.312ZM39.0598 11.712C38.9398 12 38.7717 12.264 38.5556 12.504C38.3154 12.72 38.0513 12.888 37.7632 13.008C37.475 13.128 37.1629 13.2 36.8507 13.2C36.2024 13.2 35.6021 12.96 35.1459 12.504C34.9298 12.264 34.7617 12 34.6416 11.712C34.5215 11.424 34.4495 11.112 34.4495 10.8C34.4495 10.488 34.5215 10.176 34.6416 9.888C34.7617 9.576 34.9298 9.336 35.1459 9.096C35.6981 8.544 36.5386 8.28 37.3069 8.448C37.475 8.472 37.6191 8.52 37.7632 8.592C37.9072 8.64 38.0513 8.712 38.1954 8.808C38.3154 8.88 38.4355 9 38.5556 9.096C38.7717 9.336 38.9398 9.576 39.0598 9.888C39.1799 10.176 39.2519 10.488 39.2519 10.8C39.2519 11.112 39.1799 11.424 39.0598 11.712Z" fill="#A12020"/>
</svg>
