<svg width="41" height="40" viewBox="0 0 41 40" fill="none" xmlns="http://www.w3.org/2000/svg">
<path d="M6.60541 0.23241C3.58937 0.965683 1.0399 3.5988 0.406699 6.63189C0.156751 7.86512 0.156751 32.1298 0.406699 33.363C1.05656 36.4795 3.73934 39.1626 6.85536 39.8125C8.08843 40.0625 32.35 40.0625 33.5831 39.8125C36.6991 39.1626 39.3819 36.4795 40.0318 33.363C40.2817 32.1298 40.2817 7.86512 40.0318 6.63189C39.3819 3.51548 36.6991 0.832359 33.5831 0.182415C32.2667 -0.0842323 7.77183 -0.0508995 6.60541 0.23241ZM12.3375 5.68196C14.2038 6.58189 14.4538 9.33167 12.7875 10.5982C12.2376 11.0149 12.0209 11.0815 11.0545 11.0815C10.088 11.0815 9.87139 11.0149 9.32151 10.5982C7.65519 9.34833 7.90514 6.59856 9.75475 5.68196C10.6546 5.232 11.4211 5.232 12.3375 5.68196ZM13.554 22.4973V31.6632H11.0545H8.555V22.4973V13.3313H11.0545H13.554V22.4973ZM21.8856 14.7146V16.0978L22.852 15.1479C24.1851 13.848 25.2849 13.4313 27.3844 13.4313C28.7508 13.4147 29.1007 13.4813 29.9006 13.848C31.7168 14.6979 32.7999 16.0811 33.2998 18.1809C33.4998 19.0309 33.5498 20.4974 33.5498 25.447V31.6632H31.0503H28.5508V26.6136C28.5508 21.2307 28.4675 20.5641 27.7177 19.4975C27.2344 18.8142 26.2347 18.3309 25.3015 18.3309C24.0518 18.3309 22.9853 19.0142 22.3355 20.2474C21.9855 20.8807 21.9689 21.1474 21.9189 26.2803L21.8689 31.6632H19.3694H16.8866V22.4973V13.3313H19.3861H21.8856V14.7146Z" fill="#A12020"/>
</svg>
