<svg width="56" height="38" viewBox="0 0 56 38" fill="none" xmlns="http://www.w3.org/2000/svg">
<path d="M0.219238 8.24656V16.3931H1.88113H3.53215L4.50973 14.7638C5.25921 13.5146 5.50904 13.167 5.6068 13.2757C5.67197 13.3408 6.12817 14.0795 6.61696 14.8941L7.50765 16.3931H9.19126H10.864V8.24656V0.100046H9.1804H7.49679L7.47506 4.90106L7.44248 9.70207L6.51921 8.15966C6.01955 7.31242 5.55249 6.62812 5.48731 6.64984C5.433 6.67156 4.96594 7.37759 4.45542 8.22483L3.53215 9.76724L3.49957 4.93364L3.47784 0.100046H1.84854H0.219238V8.24656Z" fill="#A12020"/>
<path d="M12.3848 8.24656V16.3931H15.6977H19.0106V14.7095V13.0258H17.3813H15.752V11.4509V9.87586H17.3813H19.0106V8.19225V6.50863H17.3813H15.752V4.98795V3.47813L17.3596 3.44555L18.9563 3.41296L18.9889 1.75107L19.0215 0.100046H15.6977H12.3848V8.24656Z" fill="#A12020"/>
<path d="M20.5312 8.2573V16.4038L23.6595 16.3712L26.7878 16.3386L27.6133 15.9259C29.5793 14.9592 30.6872 12.8302 30.3288 10.7338C30.1659 9.77798 29.7857 8.97419 29.1991 8.31161L28.7538 7.80109L28.9819 7.3992C29.5793 6.32386 29.7205 4.69456 29.3295 3.4237C28.895 2.04423 27.6024 0.740786 26.1904 0.28458C25.7124 0.132513 25.1802 0.099926 23.073 0.099926H20.5312V8.2573ZM25.4843 3.68439C26.3967 4.24922 26.3967 5.72645 25.4843 6.29127C25.2888 6.39989 24.8543 6.53024 24.5176 6.57369L23.8985 6.64972V4.98783V3.32594L24.5176 3.40198C24.8543 3.44543 25.2888 3.57577 25.4843 3.68439ZM26.1795 10.1473C27.244 10.7773 27.3091 12.1025 26.299 12.7759C25.984 12.9931 25.7885 13.0257 24.9195 13.0257H23.8985V11.4399V9.85401L24.8543 9.89746C25.5495 9.93005 25.9188 9.99522 26.1795 10.1473Z" fill="#A12020"/>
<path d="M34.5975 0.252151C32.6858 0.860424 31.4367 2.40283 31.1326 4.52092L31.0674 4.98799H32.7293H34.3912L34.6193 4.45575C34.9017 3.79317 35.3687 3.46731 36.053 3.46731C37.8996 3.46731 38.1494 6.13936 36.3355 6.50867L36.0096 6.57384V8.24659V9.91934L36.3355 9.98451C37.6823 10.2669 38.0408 12.0917 36.8786 12.8086C36.053 13.3192 35.0103 12.9716 34.6193 12.0374L34.3912 11.5052H32.7293H31.0674L31.1326 11.9614C31.3281 13.3083 31.7191 14.1338 32.5989 15.0028C33.0008 15.4155 33.4896 15.7631 33.9675 15.9912C34.6084 16.2845 34.8474 16.3388 35.8141 16.3714C36.7374 16.4148 37.0306 16.3822 37.6389 16.1759C38.5513 15.8717 39.5506 15.1222 40.1046 14.3293C41.2125 12.7326 41.2451 10.3864 40.1806 8.81142C40.0068 8.55073 39.8656 8.3009 39.8656 8.24659C39.8656 8.19228 40.0068 7.94246 40.1806 7.68177C40.9518 6.54126 41.1691 4.84678 40.7346 3.42386C40.311 2.05525 38.9858 0.73008 37.5955 0.284737C36.9003 0.0674973 35.2493 0.0457726 34.5975 0.252151Z" fill="#A12020"/>
<path d="M49.2613 0.349691C47.9687 0.838481 47.078 1.65313 46.4589 2.92399L46.1113 3.63002V8.19206C46.1113 12.6672 46.1113 12.765 46.3503 13.3515C46.8499 14.5681 47.9036 15.6217 49.0984 16.0887C49.9891 16.4363 51.651 16.4798 52.5091 16.1865C53.8451 15.7086 54.8009 14.8613 55.4309 13.5796L55.7785 12.8627V8.24637V3.63002L55.4092 2.86968C54.9204 1.87037 54.0623 1.01227 53.063 0.534345C52.357 0.18676 52.2158 0.154175 51.1079 0.13245C50.076 0.099865 49.8261 0.13245 49.2613 0.349691ZM51.7053 3.63002C51.8682 3.71691 52.1289 3.96674 52.2701 4.19484C52.5199 4.6076 52.5199 4.61846 52.5199 8.24637C52.5199 11.6896 52.5091 11.9069 52.3027 12.2436C51.6835 13.2646 50.2823 13.2972 49.6306 12.3088C49.4351 12.0155 49.4242 11.7331 49.4242 8.24637C49.4242 4.75967 49.4351 4.47725 49.6306 4.18398C50.076 3.51054 50.9884 3.26071 51.7053 3.63002Z" fill="#A12020"/>
<path d="M41.8208 14.7095V16.3931H43.5044H45.188V14.7095V13.0258H43.5044H41.8208V14.7095Z" fill="#A12020"/>
<path d="M5.16142 21.4657C3.36919 22.5084 1.85937 23.3991 1.81592 23.4534C1.71816 23.5403 8.1702 27.3638 8.3983 27.3638C8.59381 27.3638 14.9155 23.6381 14.9481 23.5078C14.9698 23.4426 13.699 22.6497 12.1348 21.7372C10.5707 20.8248 9.09347 19.9667 8.8545 19.8255L8.40916 19.554L5.16142 21.4657Z" fill="#A12020"/>
<path d="M24.7131 21.487C22.9208 22.5406 21.4653 23.4531 21.4653 23.5074C21.4871 23.6377 27.8196 27.3634 28.026 27.3525C28.2541 27.3525 34.5649 23.6268 34.5649 23.4965C34.5541 23.4096 29.3403 20.2813 28.3518 19.7708L27.9717 19.5753L24.7131 21.487Z" fill="#A12020"/>
<path d="M44.3408 21.4874C42.5269 22.5519 41.0605 23.4643 41.0713 23.5186C41.1148 23.649 47.4582 27.3638 47.632 27.3638C47.7406 27.3638 54.1166 23.6815 54.2687 23.5295C54.3013 23.5078 52.9109 22.6605 51.1947 21.6504C49.4785 20.651 47.9687 19.7712 47.8492 19.6952C47.6537 19.5757 47.2736 19.7712 44.3408 21.4874Z" fill="#A12020"/>
<path d="M0.219238 30.2096V34.1525L3.38008 35.9991C5.11801 37.0093 6.61696 37.8565 6.693 37.8782C6.82334 37.9108 6.84507 37.2808 6.84507 34.0222V30.1336L4.05353 28.5043C2.52198 27.6028 1.03389 26.7338 0.740615 26.5709L0.219238 26.2559V30.2096Z" fill="#A12020"/>
<path d="M13.2862 28.2003L9.995 30.1229V34.0224C9.995 37.6829 10.0059 37.9218 10.1796 37.8458C10.5924 37.6937 16.5339 34.1636 16.5774 34.0549C16.5991 33.9898 16.61 32.2084 16.5991 30.1012L16.5665 26.2669L13.2862 28.2003Z" fill="#A12020"/>
<path d="M19.7926 30.2096L19.8252 34.1308L23.0295 36.0099C24.7891 37.0527 26.2664 37.8999 26.3207 37.8999C26.3641 37.8999 26.3967 36.1511 26.3967 34.0004V30.101L23.1272 28.1893C21.335 27.1356 19.8469 26.2775 19.8143 26.2775C19.7926 26.2775 19.7817 28.0481 19.7926 30.2096Z" fill="#A12020"/>
<path d="M32.8378 28.211L29.5575 30.1336L29.5466 34.0113C29.5466 37.0527 29.5792 37.8999 29.6878 37.8999C29.753 37.889 31.2628 37.0418 33.0225 36.0099L36.2268 34.1199L36.2594 30.1987C36.2702 28.0372 36.2485 26.2775 36.205 26.2884C36.1507 26.2884 34.6409 27.1574 32.8378 28.211Z" fill="#A12020"/>
<path d="M39.4312 30.2093L39.442 34.1522L42.6029 35.9988C44.3516 37.0089 45.8397 37.8562 45.9158 37.8779C46.0244 37.9105 46.057 37.1719 46.057 34.0219V30.1333L43.3741 28.5583C41.8968 27.6893 40.4087 26.8204 40.0611 26.6248L39.4312 26.2664V30.2093Z" fill="#A12020"/>
<path d="M52.4982 28.1998L49.207 30.1224V34.0218C49.207 37.1936 49.2288 37.9104 49.3482 37.8779C49.4243 37.8561 50.9232 37.0089 52.6612 35.9987L55.822 34.1522L55.8329 30.2093C55.8329 28.0477 55.822 26.2772 55.8111 26.2772C55.7894 26.2772 54.3013 27.1462 52.4982 28.1998Z" fill="#A12020"/>
</svg>
