<svg width="45" height="44" viewBox="0 0 45 44" fill="none" xmlns="http://www.w3.org/2000/svg">
<path d="M19.9611 0.521587C18.1081 1.27966 16.2971 3.00637 14.8652 5.3648C14.0229 6.71248 13.6018 7.8917 13.8123 8.06016C14.2756 8.52342 18.2344 9.36572 19.8769 9.36572H21.1403V4.73308C21.1403 2.16407 21.0982 0.100438 21.0561 0.142553C20.9719 0.142553 20.5086 0.311013 19.9611 0.521587Z" fill="#A12020"/>
<path d="M23.2461 4.73308V9.36572H24.5095C26.152 9.36572 30.1108 8.52342 30.5741 8.06016C31.1216 7.5969 28.3841 3.21694 26.7416 1.9535C26.0257 1.406 24.9307 0.774278 24.3411 0.521587L23.2461 0.100438V4.73308Z" fill="#A12020"/>
<path d="M12.0856 2.66948C9.89566 3.8487 8.08472 5.11215 8.08472 5.5333C8.08472 5.70176 8.71644 6.16502 9.51662 6.50194L10.9064 7.17578L12.6331 4.48043C13.6018 3.0064 14.2335 1.78507 14.065 1.78507C13.8966 1.78507 13.0122 2.20622 12.0856 2.66948Z" fill="#A12020"/>
<path d="M31.7112 4.48043L33.48 7.17578L34.8698 6.50194C35.67 6.16502 36.3017 5.70176 36.3017 5.49118C36.3017 5.07003 32.2165 2.41679 30.911 2.03776C30.0687 1.74295 30.1529 1.99564 31.7112 4.48043Z" fill="#A12020"/>
<path d="M4.88399 8.60771C3.2415 10.5871 1.2621 15.0092 0.672493 18.0836L0.167114 20.7368H4.33649H8.50587V18.9259C8.54799 17.1149 9.47451 11.3452 9.93778 10.166C10.1484 9.7027 9.64297 9.19732 8.12684 8.39714L6.0632 7.26004L4.88399 8.60771Z" fill="#A12020"/>
<path d="M36.3018 8.39714C35.2489 8.98675 34.3645 9.49213 34.2802 9.57636C34.196 9.66059 34.4487 10.7135 34.7856 11.8927C35.1647 13.114 35.5858 15.5988 35.7121 17.4097L36.007 20.7368H40.0921H44.2194L43.6719 17.9993C43.1244 14.925 40.6396 9.61847 39.1656 8.22868L38.1969 7.34427L36.3018 8.39714Z" fill="#A12020"/>
<path d="M11.7487 13.0298C11.3696 14.588 10.9485 16.9886 10.78 18.2942L10.5273 20.7368H15.8338H21.1403V16.399V12.0611L17.4763 11.3873C15.4127 11.0083 13.4754 10.5871 13.0964 10.4187C12.5067 10.2081 12.2962 10.6713 11.7487 13.0298Z" fill="#A12020"/>
<path d="M30.5741 10.6292C30.1108 10.7977 28.2578 11.2188 26.4889 11.4715L23.2461 12.019V16.3569V20.7368H28.5526H33.8169L33.5643 18.2942C33.2273 15.2619 32.0902 10.2081 31.7112 10.2502C31.5849 10.2502 31.0795 10.4187 30.5741 10.6292Z" fill="#A12020"/>
<path d="M0.672493 25.8747C1.2621 29.0333 2.9467 32.8237 4.71553 35.0979L6.02109 36.6982L8.12684 35.6033C9.64297 34.761 10.1484 34.2556 9.93778 33.7923C9.47451 32.6552 8.54799 26.8855 8.50587 25.0324V23.2636H4.33649H0.167114L0.672493 25.8747Z" fill="#A12020"/>
<path d="M10.78 25.6639C10.9485 27.0116 11.3696 29.4121 11.7487 30.9704C12.2962 33.3288 12.5067 33.7921 13.0964 33.5815C13.4754 33.413 15.4127 32.9919 17.4763 32.6128L21.1403 31.939V27.6012V23.2633H15.8338H10.5273L10.78 25.6639Z" fill="#A12020"/>
<path d="M23.2461 27.6012V31.939L26.9522 32.6128C28.9737 32.9919 30.911 33.413 31.29 33.5815C31.8797 33.7921 32.0902 33.3288 32.6377 30.9704C33.0168 29.4121 33.4379 27.0116 33.5643 25.6639L33.8169 23.2633H28.5526H23.2461V27.6012Z" fill="#A12020"/>
<path d="M35.7121 26.5905C35.5858 28.4015 35.1647 30.8863 34.7856 32.1076C34.4487 33.2868 34.196 34.3397 34.2802 34.4239C34.3645 34.5081 35.291 35.0556 36.386 35.6452L38.3233 36.7402L39.5025 35.3504C41.145 33.4132 43.1244 28.949 43.714 25.9167L44.2194 23.2635H40.0921H36.007L35.7121 26.5905Z" fill="#A12020"/>
<path d="M16.0866 35.1405C15.0337 35.3511 14.0229 35.7301 13.8124 35.8985C13.1806 36.4882 16.1287 40.9523 17.9817 42.1737C21.2246 44.4058 21.1404 44.4479 21.1404 39.2677V34.6351L19.5821 34.6772C18.6977 34.7193 17.1394 34.9299 16.0866 35.1405Z" fill="#A12020"/>
<path d="M23.2461 39.2673V43.8999L24.3411 43.4788C24.9307 43.2261 26.0257 42.5943 26.7416 42.0468C28.3841 40.7834 31.1216 36.4034 30.5741 35.9402C30.1108 35.4769 26.152 34.6346 24.5095 34.6346H23.2461V39.2673Z" fill="#A12020"/>
<path d="M9.47451 37.4984C8.71644 37.8774 8.08472 38.2986 8.08472 38.5092C8.08472 38.9303 12.1699 41.5836 13.4754 41.9626C14.3177 42.2574 14.2756 42.0468 12.7174 39.6463C11.7908 38.1723 10.9906 36.9509 10.9064 36.9088C10.8643 36.8667 10.1905 37.1194 9.47451 37.4984Z" fill="#A12020"/>
<path d="M31.7112 39.5196C30.1529 42.0044 30.0687 42.2571 30.911 41.9623C32.2165 41.5833 36.3017 38.93 36.3017 38.5089C36.3017 38.2983 35.67 37.835 34.8698 37.4981L33.48 36.8243L31.7112 39.5196Z" fill="#A12020"/>
</svg>
